<mxfile host="app.diagrams.net" modified="2023-06-06T08:38:46.835Z" agent="Mozilla/5.0 (Windows NT 10.0; Win64; x64) AppleWebKit/537.36 (KHTML, like Gecko) Chrome/114.0.0.0 Safari/537.36" etag="eJtqGTCUZw8MPHTDuNR8" version="21.3.7" type="github">
  <diagram name="第 1 页" id="5aMWnNz8GOaLTw_w2Btf">
    <mxGraphModel dx="1018" dy="619" grid="1" gridSize="10" guides="1" tooltips="1" connect="1" arrows="1" fold="1" page="1" pageScale="1" pageWidth="1169" pageHeight="827" math="0" shadow="0">
      <root>
        <mxCell id="0" />
        <mxCell id="1" parent="0" />
        <mxCell id="9Z0XmwSxyKq3Dmg48kuh-48" value="" style="rounded=0;whiteSpace=wrap;html=1;fillColor=none;strokeColor=none;" vertex="1" parent="1">
          <mxGeometry x="30" y="10" width="1030" height="460" as="geometry" />
        </mxCell>
        <mxCell id="s9n6kpKXP7lWoq7CA1kA-48" value="页数" style="rounded=0;whiteSpace=wrap;html=1;fontSize=15;" parent="1" vertex="1">
          <mxGeometry x="280" y="220" width="50" height="80" as="geometry" />
        </mxCell>
        <mxCell id="s9n6kpKXP7lWoq7CA1kA-49" value="" style="endArrow=none;html=1;rounded=0;" parent="1" edge="1">
          <mxGeometry width="50" height="50" relative="1" as="geometry">
            <mxPoint x="280" y="320" as="sourcePoint" />
            <mxPoint x="280" y="300" as="targetPoint" />
          </mxGeometry>
        </mxCell>
        <mxCell id="s9n6kpKXP7lWoq7CA1kA-50" value="4字节" style="endArrow=classic;startArrow=classic;html=1;rounded=0;" parent="1" edge="1">
          <mxGeometry width="50" height="50" relative="1" as="geometry">
            <mxPoint x="280" y="310" as="sourcePoint" />
            <mxPoint x="330" y="310" as="targetPoint" />
          </mxGeometry>
        </mxCell>
        <mxCell id="s9n6kpKXP7lWoq7CA1kA-51" value="" style="endArrow=none;html=1;rounded=0;fontSize=15;" parent="1" edge="1">
          <mxGeometry width="50" height="50" relative="1" as="geometry">
            <mxPoint x="430" y="320" as="sourcePoint" />
            <mxPoint x="430" y="300" as="targetPoint" />
          </mxGeometry>
        </mxCell>
        <mxCell id="s9n6kpKXP7lWoq7CA1kA-52" value="页项0" style="rounded=0;whiteSpace=wrap;html=1;fontSize=15;" parent="1" vertex="1">
          <mxGeometry x="430" y="220" width="80" height="80" as="geometry" />
        </mxCell>
        <mxCell id="s9n6kpKXP7lWoq7CA1kA-53" value="" style="endArrow=none;html=1;rounded=0;fontSize=15;" parent="1" edge="1">
          <mxGeometry width="50" height="50" relative="1" as="geometry">
            <mxPoint x="430" y="320" as="sourcePoint" />
            <mxPoint x="430" y="300" as="targetPoint" />
          </mxGeometry>
        </mxCell>
        <mxCell id="s9n6kpKXP7lWoq7CA1kA-54" value="8字节" style="endArrow=classic;startArrow=classic;html=1;rounded=0;fontSize=15;" parent="1" edge="1">
          <mxGeometry width="50" height="50" relative="1" as="geometry">
            <mxPoint x="430" y="310" as="sourcePoint" />
            <mxPoint x="510" y="310" as="targetPoint" />
          </mxGeometry>
        </mxCell>
        <mxCell id="s9n6kpKXP7lWoq7CA1kA-55" value="..." style="rounded=0;whiteSpace=wrap;html=1;fontSize=15;" parent="1" vertex="1">
          <mxGeometry x="670" y="220" width="80" height="80" as="geometry" />
        </mxCell>
        <mxCell id="s9n6kpKXP7lWoq7CA1kA-56" value="" style="endArrow=none;html=1;rounded=0;fontSize=15;" parent="1" edge="1">
          <mxGeometry width="50" height="50" relative="1" as="geometry">
            <mxPoint x="750.0000000000001" y="320" as="sourcePoint" />
            <mxPoint x="750.0000000000001" y="300" as="targetPoint" />
          </mxGeometry>
        </mxCell>
        <mxCell id="s9n6kpKXP7lWoq7CA1kA-57" value="" style="endArrow=none;html=1;rounded=0;fontSize=15;" parent="1" edge="1">
          <mxGeometry width="50" height="50" relative="1" as="geometry">
            <mxPoint x="749.8100000000001" y="320" as="sourcePoint" />
            <mxPoint x="749.8100000000001" y="300" as="targetPoint" />
          </mxGeometry>
        </mxCell>
        <mxCell id="s9n6kpKXP7lWoq7CA1kA-58" value="" style="endArrow=none;html=1;rounded=0;fontSize=15;" parent="1" edge="1">
          <mxGeometry width="50" height="50" relative="1" as="geometry">
            <mxPoint x="750.0000000000001" y="320" as="sourcePoint" />
            <mxPoint x="750.0000000000001" y="300" as="targetPoint" />
          </mxGeometry>
        </mxCell>
        <mxCell id="s9n6kpKXP7lWoq7CA1kA-59" value="页项n" style="rounded=0;whiteSpace=wrap;html=1;fontSize=15;" parent="1" vertex="1">
          <mxGeometry x="750" y="220" width="80" height="80" as="geometry" />
        </mxCell>
        <mxCell id="s9n6kpKXP7lWoq7CA1kA-60" value="" style="endArrow=none;html=1;rounded=0;fontSize=15;" parent="1" edge="1">
          <mxGeometry width="50" height="50" relative="1" as="geometry">
            <mxPoint x="750.0000000000001" y="320" as="sourcePoint" />
            <mxPoint x="750.0000000000001" y="300" as="targetPoint" />
          </mxGeometry>
        </mxCell>
        <mxCell id="s9n6kpKXP7lWoq7CA1kA-61" value="" style="endArrow=none;html=1;rounded=0;fontSize=15;" parent="1" edge="1">
          <mxGeometry width="50" height="50" relative="1" as="geometry">
            <mxPoint x="830.0000000000001" y="320" as="sourcePoint" />
            <mxPoint x="830.0000000000001" y="300" as="targetPoint" />
          </mxGeometry>
        </mxCell>
        <mxCell id="s9n6kpKXP7lWoq7CA1kA-62" value="8字节" style="endArrow=classic;startArrow=classic;html=1;rounded=0;fontSize=15;" parent="1" edge="1">
          <mxGeometry width="50" height="50" relative="1" as="geometry">
            <mxPoint x="750.0000000000001" y="310" as="sourcePoint" />
            <mxPoint x="830.0000000000001" y="310" as="targetPoint" />
          </mxGeometry>
        </mxCell>
        <mxCell id="s9n6kpKXP7lWoq7CA1kA-63" value="" style="endArrow=none;html=1;rounded=0;fontSize=15;" parent="1" edge="1">
          <mxGeometry width="50" height="50" relative="1" as="geometry">
            <mxPoint x="829.8100000000001" y="320" as="sourcePoint" />
            <mxPoint x="829.8100000000001" y="300" as="targetPoint" />
          </mxGeometry>
        </mxCell>
        <mxCell id="s9n6kpKXP7lWoq7CA1kA-64" value="" style="endArrow=none;html=1;rounded=0;fontSize=15;" parent="1" edge="1">
          <mxGeometry width="50" height="50" relative="1" as="geometry">
            <mxPoint x="510.19000000000005" y="320" as="sourcePoint" />
            <mxPoint x="510.19000000000005" y="300" as="targetPoint" />
          </mxGeometry>
        </mxCell>
        <mxCell id="s9n6kpKXP7lWoq7CA1kA-65" value="" style="endArrow=none;html=1;rounded=0;fontSize=15;" parent="1" edge="1">
          <mxGeometry width="50" height="50" relative="1" as="geometry">
            <mxPoint x="510" y="320" as="sourcePoint" />
            <mxPoint x="510" y="300" as="targetPoint" />
          </mxGeometry>
        </mxCell>
        <mxCell id="s9n6kpKXP7lWoq7CA1kA-66" value="" style="endArrow=none;html=1;rounded=0;fontSize=15;" parent="1" edge="1">
          <mxGeometry width="50" height="50" relative="1" as="geometry">
            <mxPoint x="510.19000000000005" y="320" as="sourcePoint" />
            <mxPoint x="510.19000000000005" y="300" as="targetPoint" />
          </mxGeometry>
        </mxCell>
        <mxCell id="s9n6kpKXP7lWoq7CA1kA-67" value="页项1" style="rounded=0;whiteSpace=wrap;html=1;fontSize=15;" parent="1" vertex="1">
          <mxGeometry x="510.19" y="220" width="80" height="80" as="geometry" />
        </mxCell>
        <mxCell id="s9n6kpKXP7lWoq7CA1kA-68" value="" style="endArrow=none;html=1;rounded=0;fontSize=15;" parent="1" edge="1">
          <mxGeometry width="50" height="50" relative="1" as="geometry">
            <mxPoint x="510.19000000000005" y="320" as="sourcePoint" />
            <mxPoint x="510.19000000000005" y="300" as="targetPoint" />
          </mxGeometry>
        </mxCell>
        <mxCell id="s9n6kpKXP7lWoq7CA1kA-69" value="" style="endArrow=none;html=1;rounded=0;entryX=0;entryY=1;entryDx=0;entryDy=0;exitX=0;exitY=0;exitDx=0;exitDy=0;fontSize=15;" parent="1" source="s9n6kpKXP7lWoq7CA1kA-70" target="s9n6kpKXP7lWoq7CA1kA-96" edge="1">
          <mxGeometry width="50" height="50" relative="1" as="geometry">
            <mxPoint x="390.69" y="410" as="sourcePoint" />
            <mxPoint x="520.69" y="300" as="targetPoint" />
          </mxGeometry>
        </mxCell>
        <mxCell id="s9n6kpKXP7lWoq7CA1kA-70" value="数据页起始偏移" style="rounded=0;whiteSpace=wrap;html=1;fontSize=15;" parent="1" vertex="1">
          <mxGeometry x="520.69" y="330" width="120" height="80" as="geometry" />
        </mxCell>
        <mxCell id="s9n6kpKXP7lWoq7CA1kA-71" value="数据页尾部偏移（数据页起始偏移+数据呀压缩后长度）" style="rounded=0;whiteSpace=wrap;html=1;fontSize=15;" parent="1" vertex="1">
          <mxGeometry x="640.69" y="330" width="120" height="80" as="geometry" />
        </mxCell>
        <mxCell id="s9n6kpKXP7lWoq7CA1kA-72" value="起始页项在文件中的偏移" style="rounded=0;whiteSpace=wrap;html=1;fontSize=15;" parent="1" vertex="1">
          <mxGeometry x="330" y="220" width="50" height="80" as="geometry" />
        </mxCell>
        <mxCell id="s9n6kpKXP7lWoq7CA1kA-73" value="" style="endArrow=none;html=1;rounded=0;" parent="1" edge="1">
          <mxGeometry width="50" height="50" relative="1" as="geometry">
            <mxPoint x="330" y="320" as="sourcePoint" />
            <mxPoint x="330" y="300" as="targetPoint" />
          </mxGeometry>
        </mxCell>
        <mxCell id="s9n6kpKXP7lWoq7CA1kA-74" value="4字节" style="endArrow=classic;startArrow=classic;html=1;rounded=0;" parent="1" edge="1">
          <mxGeometry width="50" height="50" relative="1" as="geometry">
            <mxPoint x="330" y="310" as="sourcePoint" />
            <mxPoint x="380" y="310" as="targetPoint" />
          </mxGeometry>
        </mxCell>
        <mxCell id="s9n6kpKXP7lWoq7CA1kA-75" value="" style="endArrow=none;html=1;rounded=0;" parent="1" edge="1">
          <mxGeometry width="50" height="50" relative="1" as="geometry">
            <mxPoint x="380" y="320" as="sourcePoint" />
            <mxPoint x="380" y="300" as="targetPoint" />
          </mxGeometry>
        </mxCell>
        <mxCell id="s9n6kpKXP7lWoq7CA1kA-76" value="采用的压缩算法" style="rounded=0;whiteSpace=wrap;html=1;fontSize=15;" parent="1" vertex="1">
          <mxGeometry x="380" y="220" width="50" height="80" as="geometry" />
        </mxCell>
        <mxCell id="s9n6kpKXP7lWoq7CA1kA-77" value="" style="endArrow=none;html=1;rounded=0;" parent="1" edge="1">
          <mxGeometry width="50" height="50" relative="1" as="geometry">
            <mxPoint x="380" y="320" as="sourcePoint" />
            <mxPoint x="380" y="300" as="targetPoint" />
          </mxGeometry>
        </mxCell>
        <mxCell id="s9n6kpKXP7lWoq7CA1kA-78" value="4字节" style="endArrow=classic;startArrow=classic;html=1;rounded=0;" parent="1" edge="1">
          <mxGeometry width="50" height="50" relative="1" as="geometry">
            <mxPoint x="380" y="310" as="sourcePoint" />
            <mxPoint x="430" y="310" as="targetPoint" />
          </mxGeometry>
        </mxCell>
        <mxCell id="s9n6kpKXP7lWoq7CA1kA-79" value="" style="endArrow=none;html=1;rounded=0;exitX=1;exitY=0;exitDx=0;exitDy=0;fontSize=15;" parent="1" source="s9n6kpKXP7lWoq7CA1kA-71" edge="1">
          <mxGeometry width="50" height="50" relative="1" as="geometry">
            <mxPoint x="840.3100000000003" y="350" as="sourcePoint" />
            <mxPoint x="670.3100000000001" y="300" as="targetPoint" />
          </mxGeometry>
        </mxCell>
        <mxCell id="s9n6kpKXP7lWoq7CA1kA-80" value="" style="endArrow=none;html=1;rounded=0;fontSize=15;" parent="1" edge="1">
          <mxGeometry width="50" height="50" relative="1" as="geometry">
            <mxPoint x="520.69" y="430" as="sourcePoint" />
            <mxPoint x="520.69" y="410" as="targetPoint" />
          </mxGeometry>
        </mxCell>
        <mxCell id="s9n6kpKXP7lWoq7CA1kA-81" value="" style="endArrow=none;html=1;rounded=0;fontSize=15;" parent="1" edge="1">
          <mxGeometry width="50" height="50" relative="1" as="geometry">
            <mxPoint x="520.69" y="430" as="sourcePoint" />
            <mxPoint x="520.69" y="410" as="targetPoint" />
          </mxGeometry>
        </mxCell>
        <mxCell id="s9n6kpKXP7lWoq7CA1kA-82" value="4字节" style="endArrow=classic;startArrow=classic;html=1;rounded=0;fontSize=15;" parent="1" edge="1">
          <mxGeometry width="50" height="50" relative="1" as="geometry">
            <mxPoint x="520.69" y="420" as="sourcePoint" />
            <mxPoint x="640.69" y="420" as="targetPoint" />
          </mxGeometry>
        </mxCell>
        <mxCell id="s9n6kpKXP7lWoq7CA1kA-83" value="" style="endArrow=none;html=1;rounded=0;fontSize=15;" parent="1" edge="1">
          <mxGeometry width="50" height="50" relative="1" as="geometry">
            <mxPoint x="760.69" y="430" as="sourcePoint" />
            <mxPoint x="760.69" y="410" as="targetPoint" />
          </mxGeometry>
        </mxCell>
        <mxCell id="s9n6kpKXP7lWoq7CA1kA-84" value="" style="endArrow=none;html=1;rounded=0;fontSize=15;" parent="1" edge="1">
          <mxGeometry width="50" height="50" relative="1" as="geometry">
            <mxPoint x="640.3600000000001" y="430" as="sourcePoint" />
            <mxPoint x="640.3600000000001" y="410" as="targetPoint" />
          </mxGeometry>
        </mxCell>
        <mxCell id="s9n6kpKXP7lWoq7CA1kA-87" value="&lt;font style=&quot;font-size: 15px;&quot;&gt;文件指针指向9034&lt;br&gt;read(fd, 4096, buf)&lt;/font&gt;" style="text;html=1;strokeColor=none;fillColor=none;align=left;verticalAlign=middle;whiteSpace=wrap;rounded=0;fontSize=16;" parent="1" vertex="1">
          <mxGeometry x="520.29" y="40" width="219.81" height="30" as="geometry" />
        </mxCell>
        <mxCell id="s9n6kpKXP7lWoq7CA1kA-85" value="4字节" style="endArrow=classic;startArrow=classic;html=1;rounded=0;fontSize=15;" parent="1" edge="1">
          <mxGeometry width="50" height="50" relative="1" as="geometry">
            <mxPoint x="640.69" y="420" as="sourcePoint" />
            <mxPoint x="760.69" y="420" as="targetPoint" />
          </mxGeometry>
        </mxCell>
        <mxCell id="s9n6kpKXP7lWoq7CA1kA-93" value="&lt;font style=&quot;font-size: 15px;&quot;&gt;页号：9034 / 4096 = 2&lt;/font&gt;" style="text;html=1;strokeColor=none;fillColor=none;align=left;verticalAlign=middle;whiteSpace=wrap;rounded=0;" parent="1" vertex="1">
          <mxGeometry x="270" y="90" width="190" height="20" as="geometry" />
        </mxCell>
        <mxCell id="s9n6kpKXP7lWoq7CA1kA-94" value="&lt;font style=&quot;font-size: 15px;&quot;&gt;页内偏移：9034 % 4096 = 842&lt;/font&gt;" style="text;html=1;strokeColor=none;fillColor=none;align=left;verticalAlign=middle;whiteSpace=wrap;rounded=0;" parent="1" vertex="1">
          <mxGeometry x="270" y="120" width="220" height="30" as="geometry" />
        </mxCell>
        <mxCell id="s9n6kpKXP7lWoq7CA1kA-95" value="" style="endArrow=classic;html=1;rounded=0;exitX=1;exitY=0.5;exitDx=0;exitDy=0;entryX=0.5;entryY=0;entryDx=0;entryDy=0;" parent="1" source="s9n6kpKXP7lWoq7CA1kA-93" target="s9n6kpKXP7lWoq7CA1kA-96" edge="1">
          <mxGeometry width="50" height="50" relative="1" as="geometry">
            <mxPoint x="555.69" y="130" as="sourcePoint" />
            <mxPoint x="560" y="100" as="targetPoint" />
            <Array as="points">
              <mxPoint x="630" y="100" />
            </Array>
          </mxGeometry>
        </mxCell>
        <mxCell id="s9n6kpKXP7lWoq7CA1kA-96" value="页项2" style="rounded=0;whiteSpace=wrap;html=1;fontSize=15;" parent="1" vertex="1">
          <mxGeometry x="590.19" y="220" width="80" height="80" as="geometry" />
        </mxCell>
        <mxCell id="s9n6kpKXP7lWoq7CA1kA-97" value="数据页起始位置在文件内的偏移 = 12 + 页面2的起始地址" style="text;html=1;strokeColor=none;fillColor=none;align=left;verticalAlign=middle;whiteSpace=wrap;rounded=0;fontSize=15;" parent="1" vertex="1">
          <mxGeometry x="270" y="160" width="340" height="30" as="geometry" />
        </mxCell>
        <mxCell id="s9n6kpKXP7lWoq7CA1kA-102" value="&lt;font style=&quot;font-size: 14px;&quot;&gt;header_buf&lt;/font&gt;" style="text;html=1;strokeColor=none;fillColor=none;align=center;verticalAlign=middle;whiteSpace=wrap;rounded=0;" parent="1" vertex="1">
          <mxGeometry x="180" y="247.5" width="80" height="45" as="geometry" />
        </mxCell>
      </root>
    </mxGraphModel>
  </diagram>
</mxfile>
